<svg width="256" height="256" viewBox="0 0 256 256" fill="none" xmlns="http://www.w3.org/2000/svg">
<path d="M104.727 236.308L122.182 167.385L104.727 147.692L81.4545 137.846L104.727 236.308ZM151.273 236.308L174.545 137.846L151.273 147.692L133.818 167.385L151.273 236.308ZM180.364 80.9231C180.121 80.5128 179.879 80.2051 179.636 80C178.424 79.1795 172.606 78.7692 162.182 78.7692C153.697 78.7692 143.576 79.7436 131.818 81.6923C130.97 81.8974 129.697 82 128 82C126.303 82 125.03 81.8974 124.182 81.6923C112.424 79.7436 102.303 78.7692 93.8182 78.7692C83.3939 78.7692 77.5758 79.1795 76.3636 80C76.1212 80.2051 75.8788 80.5128 75.6364 80.9231C75.8788 82.7692 76.1212 84.1538 76.3636 85.0769C76.6061 85.3846 77.0606 85.718 77.7273 86.0769C78.3939 86.4359 78.8485 86.9744 79.0909 87.6923C79.3333 88.1026 79.7879 89.1538 80.4545 90.8462C81.1212 92.5385 81.5455 93.5897 81.7273 94C81.9091 94.4103 82.3636 95.2821 83.0909 96.6154C83.8182 97.9487 84.3333 98.8205 84.6364 99.2308C84.9394 99.641 85.4849 100.359 86.2727 101.385C87.0606 102.41 87.7879 103.103 88.4545 103.462C89.1212 103.821 89.9697 104.308 91 104.923C92.0303 105.538 93.0909 105.949 94.1818 106.154C95.2727 106.359 96.5152 106.564 97.9091 106.769C99.303 106.974 100.788 107.077 102.364 107.077C106.727 107.077 110.303 106.436 113.091 105.154C115.879 103.872 117.848 102.333 119 100.538C120.152 98.7436 121.03 96.9744 121.636 95.2308C122.242 93.4872 122.939 91.9744 123.727 90.6923C124.515 89.4103 125.576 88.7692 126.909 88.7692H129.091C130.424 88.7692 131.485 89.4103 132.273 90.6923C133.061 91.9744 133.758 93.4872 134.364 95.2308C134.97 96.9744 135.848 98.7436 137 100.538C138.152 102.333 140.121 103.872 142.909 105.154C145.697 106.436 149.273 107.077 153.636 107.077C155.212 107.077 156.697 106.974 158.091 106.769C159.485 106.564 160.727 106.359 161.818 106.154C162.909 105.949 163.97 105.538 165 104.923C166.03 104.308 166.879 103.821 167.545 103.462C168.212 103.103 168.939 102.41 169.727 101.385C170.515 100.359 171.061 99.641 171.364 99.2308C171.667 98.8205 172.182 97.9487 172.909 96.6154C173.636 95.2821 174.091 94.4103 174.273 94C174.455 93.5897 174.879 92.5385 175.545 90.8462C176.212 89.1538 176.667 88.1026 176.909 87.6923C177.152 86.9744 177.606 86.4359 178.273 86.0769C178.939 85.718 179.394 85.3846 179.636 85.0769C179.879 84.1538 180.121 82.7692 180.364 80.9231ZM256 216.154C256 228.564 251.576 238.308 242.727 245.385C233.879 252.462 222.121 256 207.455 256H48.5455C33.8788 256 22.1212 252.462 13.2727 245.385C4.42424 238.308 0 228.564 0 216.154C0 209.897 0.272727 203.846 0.818182 198C1.36364 192.154 2.51515 185.718 4.27273 178.692C6.0303 171.667 8.30303 165.333 11.0909 159.692C13.8788 154.051 17.7273 148.744 22.6364 143.769C27.5455 138.795 33.2121 134.974 39.6364 132.308L23.2727 98.4615H62.1818C59.5152 91.8974 58.1818 85.3333 58.1818 78.7692C58.1818 77.5385 58.303 75.8974 58.5455 73.8462C35.0303 69.7436 23.2727 64.8205 23.2727 59.0769C23.2727 53.2308 36 48.1538 61.4545 43.8462C63.5152 37.4872 66.6364 30.6154 70.8182 23.2308C75 15.8462 79.2727 10 83.6364 5.69231C87.5152 1.89744 92.1212 0 97.4545 0C101.091 0 106.182 1.58974 112.727 4.76923C119.273 7.94872 124.364 9.53846 128 9.53846C131.636 9.53846 136.727 7.94872 143.273 4.76923C149.818 1.58974 154.909 0 158.545 0C163.879 0 168.485 1.89744 172.364 5.69231C176.727 10 181 15.8462 185.182 23.2308C189.364 30.6154 192.485 37.4872 194.545 43.8462C220 48.1538 232.727 53.2308 232.727 59.0769C232.727 64.8205 220.97 69.7436 197.455 73.8462C198.303 82.1538 197.091 90.359 193.818 98.4615H232.727L217.818 133.077C225.455 136.462 231.97 141.41 237.364 147.923C242.758 154.436 246.727 161.795 249.273 170C251.818 178.205 253.576 185.974 254.545 193.308C255.515 200.641 256 208.256 256 216.154Z" fill="black"/>
</svg>
